# xmcd CD database file
# Copyright (C) 1993-1998 Ti Kan
# Generated: Thu Aug 6 22:37:57 1998 by KSCD
# 
# Track frame offsets:
#       150
#       17017
#       19112
#       30432
#       43685
#       57485
#       79992
#       93032
#       103787
#       120485
#       131025
#       143262
#       156345
#
# Disc length: 2122 seconds
#
# Revision: 2
# Processed by: cddbd v1.4b41PL1 Copyright (c) Steve Scherf et al.
# Submitted via: Kscd 1.2.0
#
DISCID=9e08480d
DTITLE=Bill Monroe and the Bluegrass Boys - Live at the Opry
DYEAR=1900
DGENRE=
TTITLE0=New Mule Skinner Blues
TTITLE1=Introduction
TTITLE2=Molly and Tenbrooks
TTITLE3=Footprints in the Snow
TTITLE4=Sittin' Alone in the Moonlight
TTITLE5=Precious Memories
TTITLE6=Rawhide
TTITLE7=My Sweet Darlin'
TTITLE8=In the Pines
TTITLE9=Love, Please Come Home
TTITLE10=Pike County Breakdown
TTITLE11=I'm Working on a Building
TTITLE12=Theme
EXTD=Celebrating 50 years on the Grand Ole Opry.
EXTT0=
EXTT1=
EXTT2=
EXTT3=
EXTT4=
EXTT5=
EXTT6=
EXTT7=
EXTT8=
EXTT9=
EXTT10=
EXTT11=
EXTT12=
PLAYORDER=
